<svg width="1603" height="987" xmlns="http://www.w3.org/2000/svg" xmlns:xlink="http://www.w3.org/1999/xlink" xml:space="preserve" overflow="hidden"><defs><filter id="fx0" x="-10%" y="-10%" width="120%" height="120%" filterUnits="userSpaceOnUse" primitiveUnits="userSpaceOnUse"><feComponentTransfer color-interpolation-filters="sRGB"><feFuncR type="discrete" tableValues="0 0"/><feFuncG type="discrete" tableValues="0 0"/><feFuncB type="discrete" tableValues="0 0"/><feFuncA type="linear" slope="0.631373" intercept="0"/></feComponentTransfer><feGaussianBlur stdDeviation="6.875 6.875"/></filter><clipPath id="clip1"><rect x="1917" y="888" width="1603" height="987"/></clipPath><clipPath id="clip2"><rect x="-3" y="-3" width="571" height="243"/></clipPath><clipPath id="clip3"><rect x="0" y="0" width="566" height="238"/></clipPath><linearGradient x1="2702" y1="1847" x2="2702" y2="1653" gradientUnits="userSpaceOnUse" spreadMethod="reflect" id="fill4"><stop offset="0" stop-color="#AFAFAF"/><stop offset="0.5" stop-color="#A5A5A5"/><stop offset="1" stop-color="#929292"/></linearGradient></defs><g clip-path="url(#clip1)" transform="translate(-1917 -888)"><text fill="#7F7F7F" font-family="Gill Sans MT,Gill Sans MT_MSFontService,sans-serif" font-style="italic" font-weight="400" font-size="183" transform="matrix(1 0 0 1 2239.52 1120)">Seleccione un <tspan font-size="183" x="-194.219" y="220">anuncio de la tabla </tspan><tspan font-size="183" x="-98.5415" y="440">para visualizarlo</tspan></text><g clip-path="url(#clip2)" filter="url(#fx0)" transform="translate(2419 1638)"><g clip-path="url(#clip3)"><path d="M544 167.375 119 167.375 119 215.875 21.9998 118.875 119 21.8751 119 70.3748 544 70.3748Z" fill="#FF0000" fill-rule="evenodd"/></g></g><path d="M2963 1798.5 2538 1798.5 2538 1847 2441 1750 2538 1653 2538 1701.5 2963 1701.5Z" fill="url(#fill4)" fill-rule="evenodd"/></g></svg>