<svg width="494" height="225" xmlns="http://www.w3.org/2000/svg" xmlns:xlink="http://www.w3.org/1999/xlink" xml:space="preserve" overflow="hidden"><defs><filter id="fx0" x="-10%" y="-10%" width="120%" height="120%" filterUnits="userSpaceOnUse" primitiveUnits="userSpaceOnUse"><feComponentTransfer color-interpolation-filters="sRGB"><feFuncR type="discrete" tableValues="0 0"/><feFuncG type="discrete" tableValues="0 0"/><feFuncB type="discrete" tableValues="0 0"/><feFuncA type="linear" slope="0.631373" intercept="0"/></feComponentTransfer><feGaussianBlur stdDeviation="6.875 6.875"/></filter><clipPath id="clip1"><rect x="2993" y="927" width="494" height="225"/></clipPath><clipPath id="clip2"><rect x="-3" y="-3" width="310" height="114"/></clipPath><clipPath id="clip3"><rect x="0" y="0" width="304" height="109"/></clipPath><linearGradient x1="3250" y1="1124" x2="3250" y2="1059" gradientUnits="userSpaceOnUse" spreadMethod="reflect" id="fill4"><stop offset="0" stop-color="#AFAFAF"/><stop offset="0.5" stop-color="#A5A5A5"/><stop offset="1" stop-color="#929292"/></linearGradient></defs><g clip-path="url(#clip1)" transform="translate(-2993 -927)"><text fill="#7F7F7F" font-family="Gill Sans MT,Gill Sans MT_MSFontService,sans-serif" font-style="italic" font-weight="400" font-size="37" transform="matrix(1 0 0 1 3049.84 979)">Seleccione un anuncio de la <tspan font-size="37" x="38.3855" y="44">tabla para visualizarlo</tspan></text><g clip-path="url(#clip2)" filter="url(#fx0)" transform="translate(3098 1044)"><g clip-path="url(#clip3)"><path d="M282 70.6251 54.4995 70.6251 54.4995 86.8751 21.9998 54.375 54.4995 21.8752 54.4995 38.1252 282 38.1252Z" fill="#FF0000" fill-rule="evenodd"/></g></g><path d="M3380 1107.75 3152.5 1107.75 3152.5 1124 3120 1091.5 3152.5 1059 3152.5 1075.25 3380 1075.25Z" fill="url(#fill4)" fill-rule="evenodd"/></g></svg>